<?xml version="1.0" encoding="UTF-8"?> <svg xmlns="http://www.w3.org/2000/svg" id="Layer_1" data-name="Layer 1" viewBox="0 0 500 500"><defs><style>.cls-1{fill:#fff;}</style></defs><title>thecommunitychurch_weblogo</title><path class="cls-1" d="M250,0C111.93,0,0,111.93,0,250S111.93,500,250,500,500,388.07,500,250,388.07,0,250,0ZM350.29,107.74h.89c.22,0,.39.11.67.5l18.09,26.43L388,108.24c.28-.39.45-.5.67-.5h.89L391,118.87l-19.2,27.77c-.67.94-1,1.5-1.5,1.5h-.72c-.5,0-.89-.56-1.51-1.5L348.9,118.87Zm2.23,132.44v-9.52c0-.39.11-.5.5-.5h.55a1.58,1.58,0,0,1,1.06.5l32.67,29.55v9.85c0,.39-.11.5-.5.5h-.56a1.53,1.53,0,0,1-1.06-.5Zm9.07,11.91v16.25c0,1.17-.34,1.5-1.5,1.5H354c-1.17,0-1.5-.33-1.5-1.5V243.85Zm16.64-3.73v-16c0-1.17.33-1.51,1.5-1.51h6.07c1.16,0,1.5.34,1.5,1.51v24.2Zm-127,14.3c4.29-.5,6.51-3.34,6.51-9.13V232.39c0-1.17.34-1.51,1.51-1.51h6.06c1.17,0,1.5.34,1.5,1.51v21.42c0,10.85-7.34,16.14-15.58,16.7ZM134.32,107.74c4.9.55,9.68,2.39,13,5.73.84.83.62,1.22-.16,2.11l-3.45,3.79c-.78.83-1.28,1-2.12.16a12,12,0,0,0-7.29-3.89Zm0,32.5a12.06,12.06,0,0,0,7.29-3.9c.84-.83,1.34-.67,2.12.17l3.45,3.78c.78.89,1,1.28.16,2.12a21.41,21.41,0,0,1-13,5.67Zm-2.67-32.5v7.84c-6.29.84-9.74,6.4-9.74,12.36,0,5.73,3.51,11.63,9.74,12.3v7.84a20.21,20.21,0,0,1,0-40.34ZM110.42,230.16h.89c.22,0,.39.11.67.5l18.08,26.44,18.09-26.44c.28-.39.45-.5.67-.5h.89l1.39,11.13-19.2,27.77c-.67.95-1,1.5-1.5,1.5h-.73c-.5,0-.89-.55-1.5-1.5L109,241.29Zm4.29,38.18c-.12,1.22-.34,1.5-1.51,1.5h-6.06c-1.17,0-1.67-.39-1.51-1.5l2.9-23,7.57,11Zm19.86,122.42c0,1.17-.33,1.5-1.5,1.5H127c-1.17,0-1.5-.33-1.5-1.5V354.81c0-1.17.33-1.5,1.5-1.5h6.07c1.17,0,1.5.33,1.5,1.5ZM153,269.84h-6.06c-1.17,0-1.4-.28-1.51-1.5l-1.39-12,7.57-11,2.89,23C154.66,269.45,154.16,269.84,153,269.84Zm95.65-162v7.85c-6.46.94-9.52,6.9-9.52,12.3,0,5.78,3.51,11.46,9.52,12.3v7.84a20.2,20.2,0,0,1,0-40.29Zm-.06,154.87v7.85c-8.35-.56-15.47-6-15.47-16.7V232.39c0-1.17.33-1.51,1.5-1.51h6.07c1.17,0,1.5.34,1.5,1.51v21.14C242.18,259.38,244.41,262.05,248.58,262.66Zm5.93,128.1c0,1.17-.34,1.5-1.51,1.5h-6.06c-1.17,0-1.5-.33-1.5-1.5V361.38h-11c-1.17,0-1.5-.34-1.5-1.5v-5.07c0-1.17.33-1.5,1.5-1.5h20ZM267,359.88c0,1.16-.33,1.5-1.5,1.5h-8.29v-8.07h8.29c1.17,0,1.5.33,1.5,1.5Zm-15.66-211.8v-7.84c6.06-.73,9.51-6.4,9.51-12.3s-3.33-11.52-9.51-12.3v-7.85a20.2,20.2,0,0,1,0,40.29Zm94.2-2.17,2.89-23L356,134l-1.39,12c-.11,1.23-.34,1.5-1.51,1.5H347C345.84,147.41,345.34,147,345.51,145.91ZM374.3,390.76c0,1.17-.33,1.5-1.5,1.5H367c-1.17,0-1.5-.33-1.5-1.5V378.13L351.6,354.81c-.67-1.17-.33-1.5.72-1.5h7c1,0,1.28.33,2,1.5l13.07,23.32Zm13.92-35.95-12.36,20.65-4.39-7.85,7.29-12.8c.66-1.17.94-1.5,1.94-1.5h6.79C388.55,353.31,388.88,353.64,388.22,354.81Zm4.64-207.4H386.8c-1.17,0-1.39-.27-1.51-1.5l-1.39-12,7.57-11,2.9,23C394.53,147,394,147.41,392.86,147.41Z"></path></svg> 